# AST/ASF file generated using VICON BodyLanguage
# -----------------------------------------------
:version 1.10
:name VICON
:units
  mass 1.0
  length 0.45
  angle deg
:documentation
   .ast/.asf automatically generated from VICON data using
   VICON BodyBuilder and BodyLanguage model FoxedUp or BRILLIANT.MOD
:root
   order TX TY TZ RX RY RZ
   axis XYZ
   position 0 0 0  
   orientation 0 0 0 
:bonedata
  begin
     id 1 
     name lhipjoint
     direction 0.575328 -0.747301 0.332475 
     length 2.40933 
     axis 0 0 0  XYZ
  end
  begin
     id 2 
     name lfemur
     direction 0.34202 -0.939693 0  
     length 7.31453  
     axis 0 0 20  XYZ
    dof rx ry rz
    limits (-160.0 20.0)
           (-70.0 70.0)
           (-60.0 70.0)
  end
  begin
     id 3 
     name ltibia
     direction 0.34202 -0.939693 0   
     length 7.82185   
     axis 0 0 20   XYZ
    dof rx
    limits (-10.0 170.0)
  end
  begin
     id 4 
     name lfoot
     direction 0.0795993 -0.218697 0.972541   
     length 2.19173   
     axis -90 7.62852e-016 20   XYZ
    dof rx rz
    limits (-45.0 90.0)
           (-70.0 20.0)
  end
  begin
     id 5 
     name ltoes
     direction 1.53537e-011 -4.21894e-011 1   
     length 1.10023   
     axis -90 7.62852e-016 20   XYZ
    dof rx
    limits (-90.0 20.0)
  end
  begin
     id 6 
     name rhipjoint
     direction -0.513884 -0.783789 0.348708   
     length 2.29716  
     axis 0 0 0  XYZ 
  end
  begin
     id 7 
     name rfemur
     direction -0.34202 -0.939693 0   
     length 7.59573   
     axis 0 0 -20   XYZ
    dof rx ry rz
    limits (-160.0 20.0)
           (-70.0 70.0)
           (-70.0 60.0)
  end
  begin
     id 8 
     name rtibia
     direction -0.34202 -0.939693 0   
     length 7.66402   
     axis 0 0 -20   XYZ
    dof rx
    limits (-10.0 170.0)
 end
 begin
     id 9 
     name rfoot
     direction -0.137793 -0.378584 0.915253   
     length 2.27056  
     axis -90 -7.62852e-016 -20   XYZ
    dof rx rz
    limits (-45.0 90.0)
           (-20.0 70.0)
  end
  begin
     id 10 
     name rtoes
     direction -1.53493e-011 -4.22159e-011 1   
     length 1.11766   
     axis -90 -7.62852e-016 -20   XYZ
    dof rx
    limits (-90.0 20.0)
  end
  begin
     id 11 
     name lowerback
     direction -0.00732775 0.998356 -0.05685   
     length 2.16513   
     axis 0 0 0   XYZ
    dof rx ry rz
    limits (-20.0 45.0)
           (-30.0 30.0)
           (-30.0 30.0)
  end
  begin
     id 12 
     name upperback
     direction 0.0218081 0.999627 -0.0164647   
     length 2.16755   
     axis 0 0 0   XYZ
    dof rx ry rz
    limits (-20.0 45.0)
           (-30.0 30.0)
           (-30.0 30.0)
  end
  begin
     id 13 
     name thorax
     direction 0.02365 0.999661 0.0108914   
     length 2.16932   
     axis 0 0 0   XYZ
    dof rx ry rz
    limits (-20.0 45.0)
           (-30.0 30.0)
           (-30.0 30.0)
  end
  begin
     id 14 
     name lowerneck
     direction -0.0523929 0.978385 0.200044   
     length 1.63877   
     axis 0 0 0   XYZ
    dof rx ry rz
    limits (-20.0 45.0)
           (-30.0 30.0)
           (-30.0 30.0)
  end
  begin
     id 15 
     name upperneck
     direction 0.0448674 0.981321 -0.187074   
     length 1.69014   
     axis 0 0 0   XYZ
    dof rx ry rz
    limits (-20.0 45.0)
           (-30.0 30.0)
           (-30.0 30.0)
  end
  begin
     id 16
     name head
     direction 0.0199089 0.996118 -0.0857429  
     length 1.70094  
     axis 0 0 0   XYZ
    dof rx ry rz
    limits (-20.0 45.0)
           (-30.0 30.0)
           (-30.0 30.0)
  end
  begin
     id 17 
     name lclavicle
     direction 0.940366 0.30191 -0.156722  
     length 3.37521  
     axis 0 0 0   XYZ
    dof ry rz
    limits (-20.0 10.0)
           (0.0 20.0)
  end
  begin
     id 18 
     name lhumerus
     direction 1 -4.4897e-011 -1.7911e-027   
     length 5.25287   
     axis 180 -30 -90   XYZ
    dof rx ry rz
    limits (-60.0 90.0)
           (-90.0 90.0)
           (-90.0 90.0)
  end
  begin
     id 19
     name lradius
     direction 1 -4.48951e-011 1.04424e-027   
     length 3.51014   
     axis 180 -30 -90   XYZ
    dof rx
    limits (-10.0 170.0)
  end
  begin
     id 20
     name lwrist
     direction 1 -4.48997e-011 -9.5942e-028   
     length 1.75507   
     axis 8.48502e-016 90 90   XYZ
    dof ry
    limits (-180.0 0.0)
 end
  begin
     id 21 
     name lhand
     direction 1 -4.48831e-011 -1.90777e-027   
     length 0.706179   
     axis 1.22306e-015 90 90   XYZ
    dof rx rz
    limits (-90.0 90.0)
           (-45.0 45.0)
  end
  begin
     id 22 
     name lfingers
     direction 1 -4.49108e-011 -3.85244e-027   
     length 0.569339   
     axis 2.44611e-015 90 90   XYZ
    dof rx
    limits (0.0 90.0)
  end
  begin
     id 23
     name lthumb
     direction 0.707107 -6.34953e-011 0.707107   
     length 0.817461   
     axis -90 45 -1.62303e-014   XYZ
    dof rx rz
    limits (-45.0 45.0)
           (-45.0 45.0)
  end
  begin
     id 24 
     name rclavicle
     direction -0.905329 0.382405 -0.184787   
     length 3.30787  
     axis 0 0 0   XYZ 
    dof ry rz
    limits (-10.0 20.0)
           (-20.0 0.0)
  end
  begin
     id 25 
     name rhumerus
     direction -1 -4.48953e-011 -9.15316e-029  
     length 5.28721   
     axis 180 30 90   XYZ
    dof rx ry rz
    limits (-90.0 60.0)
           (-90.0 90.0)
           (-90.0 90.0)
  end
  begin
     id 26 
     name rradius
     direction -1 -4.48987e-011 9.37824e-028   
     length 3.50544   
     axis 180 30 90   XYZ
    dof rx
    limits (-10.0 170.0)
  end
  begin
     id 27 
     name rwrist
     direction -1 -4.48967e-011 -9.58414e-028   
     length 1.75272   
     axis 8.48502e-016 -90 -90   XYZ
    dof ry
    limits (-180.0 0.0)
  end
  begin
     id 28
     name rhand
     direction -1 -4.48904e-011 -1.91266e-027   
     length 0.884996   
     axis 1.22306e-015 -90 -90   XYZ
    dof rx rz
    limits (-90.0 90.0)
           (-45.0 45.0)
  end
  begin
     id 29
     name rfingers
     direction -1 -4.4909e-011 -3.85015e-027   
     length 0.713507   
     axis 2.44611e-015 -90 -90   XYZ
    dof rx
    limits (0.0 90.0)
  end
  begin
     id 30
     name rthumb
     direction -0.707107 -6.34853e-011 0.707107   
     length 1.02446   
     axis -90 -45 1.62303e-014   XYZ
    dof rx rz
    limits (-45.0 45.0)
           (-45.0 45.0)
  end
:hierarchy
  begin
    root lhipjoint rhipjoint lowerback
    lhipjoint lfemur
    lfemur ltibia
    ltibia lfoot
    lfoot ltoes
    rhipjoint rfemur
    rfemur rtibia
    rtibia rfoot
    rfoot rtoes
    lowerback upperback
    upperback thorax
    thorax lowerneck lclavicle rclavicle
    lowerneck upperneck
    upperneck head
    lclavicle lhumerus
    lhumerus lradius
    lradius lwrist
    lwrist lhand lthumb
    lhand lfingers
    rclavicle rhumerus
    rhumerus rradius
    rradius rwrist
    rwrist rhand rthumb
    rhand rfingers
  end

#!OML:ASF F:\twosubjects\two\Thursday\Session 1\justin.ASF
:FULLY-SPECIFIED
:DEGREES
160
root 8.98467 14.2936 -19.4911 -23.3977 -83.2285 18.5442
lowerback 11.865 1.8312 -1.78498
upperback -3.22462 2.32594 1.63742
thorax -10.3065 1.28711 2.29433
lowerneck -8.84931 5.82441 0.709049
upperneck 21.3589 6.71256 4.52467
head 7.91011 3.57143 1.98323
rclavicle 8.74653e-015 3.97569e-015
rhumerus 44.305 -40.9735 -3.85134
rradius 84.706
rwrist -9.13804
rhand -38.1622 41.9634
rfingers 7.12502
rthumb -11.1957 12.2822
lclavicle 8.74653e-015 3.97569e-015
lhumerus 48.0836 37.339 11.6284
lradius 92.473
lwrist -12.1278
lhand -26.4048 40.9672
lfingers 7.12502
lthumb 0.154767 70.9469
rfemur -14.2205 0.571497 -7.351
rtibia 62.1036
rfoot -38.6328 -3.175
rtoes -33.6802
lfemur -8.34951 1.00427 10.1611
ltibia 45.9321
lfoot -34.3165 -12.4689
ltoes -37.0544
161
root 8.96701 14.3858 -19.5022 -19.0209 -83.3374 14.4672
lowerback 11.379 1.79359 -1.4724
upperback -3.28332 2.34549 1.83986
thorax -10.0819 1.28293 2.34297
lowerneck -9.09932 5.61492 0.522945
upperneck 21.5995 6.46295 4.43108
head 8.03694 3.42886 1.97632
rclavicle 7.85199e-015 7.95139e-015
rhumerus 42.3093 -41.1903 -2.84917
rradius 83.2718
rwrist -11.7107
rhand -36.1186 39.2734
rfingers 7.12502
rthumb -9.22426 9.49518
lclavicle 7.85199e-015 7.95139e-015
lhumerus 46.7318 37.0033 11.4482
lradius 90.7086
lwrist -9.93242
lhand -26.3006 40.5185
lfingers 7.12502
lthumb 0.255455 70.4981
rfemur -13.9428 0.698167 -6.49074
rtibia 61.0282
rfoot -38.1601 -3.78706
rtoes -33.8969
lfemur -8.13405 0.81212 10.4806
ltibia 44.7808
lfoot -33.3486 -12.3592
ltoes -36.6727
162
root 8.94401 14.5111 -19.5173 -14.2946 -83.4452 9.81214
lowerback 11.0527 1.70526 -1.10429
upperback -3.22487 2.29699 2.01983
thorax -9.81486 1.24057 2.34613
lowerneck -9.67354 5.55172 0.523552
upperneck 21.9692 6.34483 4.48904
head 8.26642 3.38083 2.01611
rclavicle -2.5842e-015 3.18055e-015
rhumerus 40.1956 -41.2261 -2.18983
rradius 81.9527
rwrist -13.9703
rhand -34.3024 36.0735
rfingers 7.12502
rthumb -7.47141 6.2254
lclavicle -2.5842e-015 3.18055e-015
lhumerus 45.008 36.804 10.9528
lradius 88.776
lwrist -7.20135
lhand -25.1208 39.516
lfingers 7.12502
lthumb 1.39495 69.4912
rfemur -13.197 1.09205 -5.42607
rtibia 59.5545
rfoot -37.5719 -4.38087
rtoes -34.1693
lfemur -7.42927 0.417726 10.8184
ltibia 43.2068
lfoot -31.8483 -12.8533
ltoes -35.0349
163
root 8.92141 14.6524 -19.5409 -13.3782 -83.5558 8.88089
lowerback 10.8541 1.67703 -1.25634
upperback -3.10077 2.24105 2.08225
thorax -9.56813 1.22252 2.51477
lowerneck -10.8703 5.69806 0.453471
upperneck 22.7739 6.41567 4.96909
head 8.73768 3.46323 2.26359
rclavicle 9.64106e-015 -1.51076e-014
rhumerus 38.3011 -41.3287 -1.75206
rradius 80.1744
rwrist -15.333
rhand -33.1498 32.8646
rfingers 7.12502
rthumb -6.35885 2.98001
lclavicle 9.64106e-015 -1.51076e-014
lhumerus 43.053 36.685 10.194
lradius 86.9292
lwrist -3.79604
lhand -23.6705 38.534
lfingers 7.12502
lthumb 2.79559 68.4954
rfemur -12.3025 1.62166 -4.8076
rtibia 57.7855
rfoot -36.797 -4.45757
rtoes -34.0365
lfemur -6.28316 -0.128681 10.6115
ltibia 41.243
lfoot -30.2364 -13.1094
ltoes -33.2803
164
root 8.89635 14.8027 -19.5589 -16.2248 -83.6438 12.0871
lowerback 10.285 1.76359 -1.75055
upperback -3.09033 2.28305 1.98733
thorax -9.24307 1.26699 2.69598
lowerneck -12.0342 5.73892 0.145644
upperneck 23.5073 6.37368 5.51672
head 9.17518 3.48219 2.56405
rclavicle -3.97569e-016 -2.38542e-015
rhumerus 36.2013 -41.4644 -1.07308
rradius 78.0547
rwrist -15.6551
rhand -32.268 30.5047
rfingers 7.12502
rthumb -5.50753 0.596292
lclavicle -3.97569e-016 -2.38542e-015
lhumerus 41.1704 36.5044 9.66916
lradius 85.0941
lwrist -0.190038
lhand -22.0253 38.1467
lfingers 7.12502
lthumb 4.38434 68.0813
rfemur -11.6979 2.01053 -4.82429
rtibia 55.7737
rfoot -35.838 -4.02688
rtoes -32.6373
lfemur -5.25412 -0.657298 9.76778
ltibia 39.0132
lfoot -28.6965 -12.3421
ltoes -32.8759
165
root 8.86843 14.9723 -19.5574 -19.1716 -83.5939 15.5987
lowerback 9.51842 1.76006 -1.95671
upperback -3.22416 2.24015 1.75159
thorax -8.93573 1.24967 2.58356
lowerneck -12.4789 5.69161 0.147264
upperneck 23.6592 6.28803 5.56764
head 9.3128 3.45157 2.59514
rclavicle -7.55382e-015 -3.97569e-015
rhumerus 33.6577 -41.5266 -0.466785
rradius 75.8301
rwrist -14.0482
rhand -31.4742 30.485
rfingers 7.12502
rthumb -4.74102 0.558009
lclavicle -7.55382e-015 -3.97569e-015
lhumerus 38.932 36.1016 8.9327
lradius 83.0244
lwrist 2.75315
lhand -20.609 37.6222
lfingers 7.12502
lthumb 5.75185 67.5241
rfemur -11.0582 2.11912 -4.96849
rtibia 53.5048
rfoot -34.5929 -3.9193
rtoes -31.5159
lfemur -4.41597 -1.39882 8.695
ltibia 36.6704
lfoot -26.7922 -11.2375
ltoes -32.1648
166
root 8.83687 15.1684 -19.5528 -20.0571 -83.4736 17.0364
lowerback 8.77494 1.66522 -1.88268
upperback -3.41956 2.11404 1.54343
thorax -8.69286 1.17733 2.35626
lowerneck -12.1075 5.558 0.724849
upperneck 22.923 6.21288 4.73235
head 9.04484 3.37858 2.17132
rclavicle -3.08116e-015 2.38542e-015
rhumerus 31.0846 -41.6356 0.0340788
rradius 73.442
rwrist -11.541
rhand -30.3481 31.3778
rfingers 7.12502
rthumb -3.65359 1.42939
lclavicle -3.08116e-015 2.38542e-015
lhumerus 36.4436 35.5569 7.93312
lradius 80.7569
lwrist 4.76196
lhand -19.4744 37.2625
lfingers 7.12502
lthumb 6.84721 67.1318
rfemur -10.2356 2.08718 -4.73751
rtibia 51.0039
rfoot -32.9676 -4.78842
rtoes -32.2095
lfemur -3.73629 -2.19758 7.77788
ltibia 34.3894
lfoot -24.66 -9.61528
ltoes -32.6845
167
root 8.80632 15.3753 -19.5538 -19.8199 -83.3747 17.315
lowerback 8.02877 1.60235 -1.74257
upperback -3.54747 2.04241 1.40057
thorax -8.37936 1.12844 2.15249
lowerneck -12.1359 5.44567 1.08649
upperneck 22.3591 6.12826 4.21134
head 8.89104 3.31969 1.91253
rclavicle -2.80286e-014 -9.54166e-015
rhumerus 28.2694 -41.7159 1.0463
rradius 71.4886
rwrist -11.3791
rhand -28.4048 29.6413
rfingers 7.12502
rthumb -1.77688 -0.331042
lclavicle -2.80286e-014 -9.54166e-015
lhumerus 34.1143 35.1141 7.17726
lradius 78.5593
lwrist 5.9774
lhand -17.7455 38.2748
lfingers 7.12502
lthumb 8.51597 68.083
rfemur -9.36964 2.21619 -4.28404
rtibia 48.3729
rfoot -31.1043 -5.75969
rtoes -32.6849
lfemur -3.17555 -2.86655 7.03857
ltibia 32.2993
lfoot -22.4992 -7.19092
ltoes -36.7413
168
root 8.78072 15.5859 -19.5584 -18.947 -83.3519 16.9279
lowerback 7.33036 1.64669 -1.57435
upperback -3.64338 2.12235 1.35796
thorax -8.07099 1.15499 2.01609
lowerneck -13.2221 5.44535 0.39081
upperneck 23.0881 6.03313 5.11325
head 9.28816 3.31932 2.38261
rclavicle 5.80451e-014 1.19271e-014
rhumerus 24.8374 -41.3104 2.85041
rradius 69.9696
rwrist -12.7475
rhand -26.8874 27.3226
rfingers 7.12502
rthumb -0.311353 -2.65692
lclavicle 5.80451e-014 1.19271e-014
lhumerus 31.7082 34.6388 6.82771
lradius 76.518
lwrist 6.70489
lhand -16.5507 39.4186
lfingers 7.12502
lthumb 9.66881 69.1767
rfemur -8.52374 2.56394 -3.72159
rtibia 45.7811
rfoot -28.8733 -6.76834
rtoes -32.7588
lfemur -2.64088 -3.72555 6.45109
ltibia 30.4226
lfoot -19.7716 -5.50452
ltoes -39.8063
169
root 8.75767 15.8192 -19.5679 -17.1959 -83.393 15.868
lowerback 6.66413 1.71711 -1.49238
upperback -3.93721 2.23373 1.45786
thorax -8.00606 1.20813 2.07355
lowerneck -14.2407 5.44492 -0.593111
upperneck 24.0048 5.98833 6.09271
head 9.72837 3.32575 2.94621
rclavicle -5.86415e-015 -9.54166e-015
rhumerus 21.5037 -40.5882 4.57467
rradius 68.1459
rwrist -12.5806
rhand -26.2409 26.5135
rfingers 7.12502
rthumb 0.31305 -3.46603
lclavicle -5.86415e-015 -9.54166e-015
lhumerus 28.9804 33.8919 6.66187
lradius 74.5092
lwrist 7.0855
lhand -16.8475 39.4553
lfingers 7.12502
lthumb 9.38244 69.2265
rfemur -7.99692 2.95955 -2.98294
rtibia 43.3842
rfoot -26.2122 -7.89212
rtoes -33.4843
lfemur -2.38658 -4.59266 6.0158
ltibia 28.7412
lfoot -16.4604 -4.73327
ltoes -40.7939
170
root 8.7375 16.0762 -19.5784 -15.2912 -83.5079 14.7728
lowerback 5.91038 1.76019 -1.31436
upperback -4.20108 2.30974 1.47393
thorax -7.84734 1.23505 1.99756
lowerneck -15.131 5.43554 -0.823749
upperneck 24.45 5.99355 6.2128
head 10.043 3.32778 3.08039
rclavicle 1.78906e-015 -4.77083e-015
rhumerus 18.2162 -40.1101 5.95333
rradius 66.1776
rwrist -11.6431
rhand -25.5795 26.1156
rfingers 7.12502
rthumb 0.951923 -3.86201
lclavicle 1.78906e-015 -4.77083e-015
lhumerus 26.4464 33.3389 6.52177
lradius 72.3791
lwrist 7.19226
lhand -16.3099 39.7825
lfingers 7.12502
lthumb 9.90115 69.5297
rfemur -7.81286 3.17794 -2.23004
rtibia 41.2466
rfoot -23.3359 -8.63511
rtoes -34.3909
lfemur -2.35788 -5.16312 5.60818
ltibia 27.2254
lfoot -12.9085 -3.99767
ltoes -42.2068
171
root 8.71922 16.3372 -19.5868 -14.6029 -83.7032 14.7183
lowerback 5.0638 1.83372 -1.00372
upperback -4.15264 2.42554 1.30368
thorax -7.28551 1.26714 1.65494
lowerneck -16.228 5.42863 -0.48569
upperneck 24.5958 5.95433 5.99112
head 10.3306 3.32602 2.99427
rclavicle 1.60022e-014 7.95139e-015
rhumerus 14.7267 -39.7336 7.17974
rradius 64.396
rwrist -11.8106
rhand -25.1377 25.6226
rfingers 7.12502
rthumb 1.37854 -4.35274
lclavicle 1.60022e-014 7.95139e-015
lhumerus 24.3146 33.377 6.51531
lradius 70.275
lwrist 7.36618
lhand -14.4662 40.6742
lfingers 7.12502
lthumb 11.6795 70.3286
rfemur -7.68375 3.42128 -1.61599
rtibia 39.3454
rfoot -20.0641 -9.51275
rtoes -36.039
lfemur -2.26179 -5.47129 5.11101
ltibia 25.8117
lfoot -9.22535 -3.69968
ltoes -43.3727
172
root 8.70567 16.5967 -19.5962 -13.9797 -83.8188 14.7406
lowerback 4.31243 1.84031 -0.71748
upperback -4.1462 2.44497 1.13363
thorax -6.8225 1.25571 1.33789
lowerneck -16.457 5.37825 -0.814639
upperneck 24.1212 5.91944 6.30184
head 10.1794 3.32669 3.14299
rclavicle 1.88845e-014 8.74653e-015
rhumerus 11.5616 -39.2566 8.0208
rradius 62.5724
rwrist -12.1375
rhand -24.8782 24.7771
rfingers 7.12502
rthumb 1.62922 -5.19639
lclavicle 1.88845e-014 8.74653e-015
lhumerus 21.944 33.3976 6.28035
lradius 68.132
lwrist 7.58029
lhand -13.6021 41.0211
lfingers 7.12502
lthumb 12.5128 70.6265
rfemur -7.70666 3.77322 -0.987037
rtibia 37.602
rfoot -16.2684 -10.8049
rtoes -38.2604
lfemur -2.38727 -5.69035 4.67548
ltibia 24.4378
lfoot -5.23363 -3.79866
ltoes -43.3101
173
root 8.69406 16.8608 -19.6094 -13.4376 -83.8485 15.0454
lowerback 3.52492 1.78627 -0.409278
upperback -4.28866 2.37491 0.890256
thorax -6.49167 1.19815 0.941524
lowerneck -17.0431 5.44748 -0.480625
upperneck 24.0491 6.01401 5.98969
head 10.2867 3.37083 3.01255
rclavicle -5.20319e-014 -1.23246e-014
rhumerus 8.55831 -38.8101 8.5795
rradius 60.6593
rwrist -12.093
rhand -24.2525 23.6737
rfingers 7.12502
rthumb 2.23348 -6.29431
lclavicle -5.20319e-014 -1.23246e-014
lhumerus 19.344 33.1081 5.71512
lradius 65.7588
lwrist 7.55881
lhand -13.7962 41.0679
lfingers 7.12502
lthumb 12.3256 70.6846
rfemur -8.01227 4.02654 -0.446485
rtibia 35.936
rfoot -12.3957 -11.9157
rtoes -38.7645
lfemur -2.83351 -6.11792 4.22365
ltibia 23.1263
lfoot -1.1111 -3.71626
ltoes -39.8754
